<svg xmlns="http://www.w3.org/2000/svg" viewBox="0 0 366.644 78.329"><path d="M74.393 0L60.788 50.764 44.047 0H20.993L0 78.329h19.151l14.567-54.406 17.873 54.406h20.94L93.522 0zM347.514 0l-20.992 78.329h19.13L366.644 0zM104.984 0L83.992 78.329h19.13L124.114 0zM279.8 0l-20.524 76.583-15.096-40.339h-5.944L274.063 0h-22.584l-33.435 33.255L226.957 0h-19.131l-20.64 77.009-15.255-40.765h-5.944L201.812 0H179.23l-33.436 33.255L154.706 0h-19.13l-20.993 78.328H133.714l11.279-42.084h6.766l13.77 42.084H205.964l11.278-42.084h6.767l13.77 42.084h77.208l4.26-15.896H282.2l4.358-16.262h32.593l3.903-14.566h-32.592l4.203-15.686h36.51L335.442 0z" fill="#015e93"/></svg>
