<svg xmlns="http://www.w3.org/2000/svg" viewBox="0 0 259.686 25.067"><path d="M123.741 24.722h1.459v-5.1c0-.924-.126-2.255-.2-3.194h.057l.816 2.381 1.815 4.917h1.014l1.8-4.917.831-2.381h.067c-.085.939-.211 2.269-.211 3.194v5.1h1.52V14.413h-1.889l-1.872 5.211c-.239.686-.436 1.387-.676 2.087h-.072c-.239-.7-.45-1.4-.69-2.087l-1.9-5.211h-1.871v10.31l.002-.001zm13.237-4.216l.422-1.387a76.26 76.26 0 0 0 .957-3.432h.056c.324 1.163.634 2.311.985 3.432l.409 1.387h-2.829zm4.095 4.216h1.727l-3.434-10.31h-1.886l-3.434 10.31h1.661l.887-2.942h3.6l.879 2.942zm4.724-9.007h1.563c1.5 0 2.322.434 2.322 1.681s-.817 1.863-2.322 1.863h-1.56v-3.544h-.003zm5.869 9.007l-2.533-4.37A2.871 2.871 0 0 0 151.3 17.4c0-2.227-1.6-2.984-3.743-2.984h-3.392v10.31h1.635v-4.16h1.675l2.35 4.16h1.844l-.003-.004zm1.712 0h1.633v-3.11l1.59-1.933 2.928 5.043h1.815l-3.744-6.331 3.209-3.978h-1.815l-3.941 4.875h-.042v-4.875h-1.633v10.31-.001zm9.326 0h6.277V23.35h-4.644v-3.334h3.8v-1.373h-3.8v-2.872h4.489v-1.358H162.7v10.31l.004-.001zm10.551 0h1.633v-8.951h3.054v-1.358h-7.727v1.359h3.04v8.951-.001zm6.469 0h1.633V14.413h-1.633v10.31-.001zm4.347 0h1.548v-4.86c0-1.121-.127-2.311-.211-3.376h.07l1.084 2.157L190 24.722h1.675V14.413h-1.549v4.8c0 1.121.127 2.367.211 3.432h-.07l-1.084-2.185-3.434-6.051h-1.674v10.31l-.004.003zm14.546.178a4.668 4.668 0 0 0 3.28-1.2v-4.469h-3.533v1.331h2.055v2.423a2.577 2.577 0 0 1-1.633.5c-2.139 0-3.279-1.5-3.279-3.95 0-2.423 1.281-3.908 3.209-3.908a2.806 2.806 0 0 1 2.139.925l.887-1.037a4.141 4.141 0 0 0-3.082-1.3c-2.745 0-4.828 2.017-4.828 5.379s2.013 5.306 4.785 5.306zm8.8-.182h1.633v-3.904h1.562c2.252 0 3.9-1.037 3.9-3.292 0-2.325-1.647-3.11-3.955-3.11h-3.137v10.31l-.003-.004zm1.633-5.211v-3.8h1.35c1.647 0 2.5.448 2.5 1.807s-.788 1.989-2.449 1.989h-1.407l.006.004zm11.412 5.393c2.66 0 4.518-2.059 4.518-5.379s-1.858-5.309-4.518-5.309-4.5 1.989-4.5 5.309 1.838 5.379 4.5 5.379zm0-1.415c-1.717 0-2.829-1.541-2.829-3.964s1.112-3.894 2.829-3.894 2.843 1.471 2.843 3.894-1.126 3.969-2.843 3.969v-.005zm8.3-7.774h1.562c1.506 0 2.322.434 2.322 1.681s-.816 1.863-2.322 1.863h-1.564v-3.54l.002-.004zm5.869 9.007l-2.534-4.37a2.872 2.872 0 0 0 2.168-2.956c0-2.227-1.605-2.984-3.744-2.984h-3.392v10.31h1.633v-4.16h1.675l2.35 4.16h1.844zm3.823 0h1.632v-8.947h3.055v-1.358h-7.727v1.359h3.04v8.951-.005zm8.031-4.216l.422-1.387c.338-1.121.662-2.255.958-3.432h.056c.324 1.163.633 2.311.985 3.432l.408 1.387h-2.829zm4.1 4.216h1.731l-3.434-10.31h-1.892l-3.434 10.31h1.661l.886-2.942h3.6l.882 2.942zm3.091 0h6.01V23.35H255.3v-8.937h-1.63v10.31l.006-.005z"/><path d="M23.807 0l-4.354 16.245L14.096 0H6.718L0 25.067h6.129L10.79 7.656l5.72 17.41h6.701L29.93 0zM111.211 0l-6.717 25.067h6.121L117.333 0zM33.597 0l-6.718 25.067h6.122L39.72 0zM89.542 0l-6.569 24.508-4.83-12.91H76.24L87.706 0h-7.228l-10.7 10.642L72.631 0h-6.123l-6.605 24.644L55.021 11.6H53.12L64.584 0h-7.227l-10.7 10.642L49.509 0h-6.122l-6.718 25.067h6.122l3.61-13.468h2.165l4.407 13.468h12.939l3.61-13.468h2.165l4.407 13.468h24.708l1.364-5.088H90.31l1.394-5.204h10.43l1.25-4.661h-10.43l1.345-5.02h11.683L107.348 0z" fill="#015e93"/></svg>
